<?xml version="1.0" encoding="UTF-8" standalone="no"?><!DOCTYPE svg PUBLIC "-//W3C//DTD SVG 1.1//EN" "http://www.w3.org/Graphics/SVG/1.1/DTD/svg11.dtd"><svg width="100%" height="100%" viewBox="0 0 22280 9030" version="1.1" xmlns="http://www.w3.org/2000/svg" xmlns:xlink="http://www.w3.org/1999/xlink" xml:space="preserve" xmlns:serif="http://www.serif.com/" style="fill-rule:evenodd;clip-rule:evenodd;stroke-linejoin:round;stroke-miterlimit:2;"><g><path d="M9060.42,529.167c-198.75,6.25 -331.667,22.083 -389.584,45.833c-10.416,4.167 -52.5,13.75 -93.75,20.833c-359.166,62.5 -801.666,159.584 -1095,240c-187.083,51.25 -406.666,121.667 -445.833,142.917c-12.5,6.667 -37.083,16.667 -53.75,21.667c-28.75,8.75 -120.417,41.25 -138.75,49.166c-4.583,2.084 -30,12.5 -56.25,23.334c-67.917,27.916 -215.833,102.5 -289.583,145.833c-375.834,220.417 -713.75,530.833 -996.25,916.667c-279.584,380.833 -504.584,830.833 -677.084,1352.92c-23.333,70.417 -43.75,127.5 -45.416,126.25c-2.917,-1.666 -10.417,37.084 -37.084,187.5c-15,84.167 -21.25,98.75 -21.25,50.834c-0.416,-73.334 -42.916,-136.25 -113.75,-169.584c-19.166,-9.166 -42.5,-17.5 -52.083,-19.166c-9.583,-1.667 -17.5,-4.167 -17.5,-6.25c0,-7.084 -49.167,-3.75 -70.417,4.166c-43.333,17.084 -88.75,54.167 -76.666,62.5c2.083,1.25 5,5.834 6.666,9.584c2.084,5.416 7.084,7.5 18.75,7.5c12.917,-0 18.75,-2.917 32.084,-16.667c23.333,-23.75 37.916,-29.583 77.5,-29.583c26.25,-0 37.5,1.666 50.833,8.75c33.333,17.083 66.25,56.25 94.167,111.25c11.666,23.333 12.916,29.583 12.916,62.5c-0.416,72.083 -24.166,99.166 -112.5,128.333c-32.083,10.417 -39.166,11.25 -75,9.167c-65.416,-4.167 -171.666,-36.667 -240.416,-73.75c-20.417,-10.834 -39.167,-25.834 -58.334,-45.834c-36.666,-39.166 -99.166,-89.166 -161.666,-130c-57.084,-37.5 -178.75,-100.416 -258.334,-133.75c-62.083,-25.833 -162.916,-61.666 -165.833,-58.75c-0.833,1.25 -25,-1.25 -53.333,-5c-45,-6.25 -60,-6.666 -116.25,-2.5c-141.25,10.834 -340.417,52.084 -508.334,105.417c-266.666,84.583 -509.166,328.75 -687.5,692.083c-17.916,35.834 -42.083,90 -54.166,119.584c-12.084,30 -24.167,54.583 -27.084,54.583c-5,0 -15.416,23.333 -21.25,47.083c-1.25,6.25 -9.166,16.667 -16.666,22.917c-15.834,12.917 -17.084,15.833 -7.5,26.25c6.25,7.083 5.833,10.833 -3.75,50.417c-30.417,122.5 -41.25,230.833 -40.834,415.416c0.417,325.417 51.667,731.667 156.667,1235.83c25,121.25 31.25,147.916 35,147.916c1.667,0 5.833,13.75 8.75,30c25.833,147.5 78.75,348.334 108.75,415c6.25,14.167 10.833,25.834 9.583,25.834c-0.833,-0 -22.916,-11.25 -48.75,-24.584c-176.666,-93.75 -400.833,-168.333 -605.833,-202.083c-108.333,-17.917 -155,-21.25 -286.667,-21.25c-110,0.417 -132.083,1.667 -185.416,10c-33.334,5.417 -74.584,13.333 -91.667,17.917c-17.083,4.583 -38.75,10 -47.917,11.666c-9.166,2.084 -24.583,6.25 -33.75,10c-10.833,3.75 -18.75,4.584 -21.25,2.084c-2.5,-2.5 -24.166,1.666 -55.833,10.416c-310.417,86.25 -557.917,267.917 -711.25,522.084c-92.083,153.75 -147.5,322.083 -173.75,532.5c-9.167,70.833 -12.917,271.666 -6.25,328.75c27.083,237.083 134.583,409.166 311.25,499.166c49.167,24.584 84.583,37.084 161.667,55.417c97.083,23.333 108.333,24.583 197.916,24.583c73.75,0.417 91.667,-0.833 130,-9.166c65.834,-14.167 106.667,-29.167 187.5,-69.167c152.084,-75 204.584,-119.167 286.667,-241.667c48.75,-72.916 60.417,-97.5 66.25,-140.833c3.75,-29.167 4.167,-27.917 -12.917,-84.583c-19.166,-64.167 -37.916,-94.584 -81.25,-132.5c-62.5,-55 -90.833,-66.25 -207.5,-82.917c-75.833,-10.417 -210,-4.583 -219.166,10c-1.25,2.083 -13.334,8.333 -27.084,13.75c-13.333,5.417 -30.833,15 -38.333,20.833c-29.167,23.334 -40,70.417 -19.583,83.75c11.25,7.084 9.166,7.084 107.916,-2.083c30.417,-2.917 60,-2.917 88.75,-0c41.667,3.75 97.917,13.75 105.834,18.75c2.083,1.25 14.583,2.5 27.916,3.333c45.834,2.084 83.334,35 87.5,76.667c3.75,41.667 -33.75,115.833 -82.083,160.417c-153.333,141.666 -408.333,57.916 -580.417,-190.834c-19.583,-28.333 -25,-40.416 -35.833,-81.25c-25.417,-95 -27.917,-112.5 -27.917,-200c0,-95 6.667,-129.583 37.084,-194.166c24.166,-50.834 44.583,-80 90.833,-130c21.25,-22.917 49.583,-54.167 62.917,-69.167c56.25,-63.75 119.583,-97.083 198.75,-104.583c50,-5 176.666,15.416 261.666,42.083c191.25,59.583 376.667,196.25 715.417,526.667c158.75,155 198.333,189.166 287.5,247.916c255.417,169.167 573.333,225 870.833,153.75l45.834,-10.833l158.333,63.333c87.083,35 162.083,65 166.667,67.084c4.583,2.083 56.666,23.333 116.25,47.5l107.916,43.75l12.084,-10.417c15.416,-12.917 24.583,-13.75 12.5,-0.833c-6.25,6.666 -7.5,11.25 -5,15.416c3.333,5 4.166,5 4.166,0.417c0,-9.167 17.084,-21.667 25.834,-18.75c5.416,1.667 7.5,0 7.5,-6.25c-0,-8.75 13.75,-12.5 18.333,-5.417c1.25,2.084 8.333,3.75 15.833,3.334c10,-0.417 15,-2.917 17.917,-9.584c4.583,-10.833 8.333,-12.083 12.917,-4.583c1.666,2.5 0.833,5.833 -1.667,6.667c-2.917,0.833 -5,3.75 -5,7.083c0,10 -10.833,15.417 -20,10c-5.833,-3.75 -10,-3.75 -15.833,-0.417c-4.167,2.5 -5.417,5 -2.5,5c2.5,0 5,2.084 5,4.167c-0,2.917 -2.5,2.917 -8.334,0c-6.666,-3.75 -7.916,-3.333 -5.416,2.917c2.083,5 0.833,6.25 -4.167,4.166c-3.75,-1.25 -7.083,-0.833 -7.083,1.25c-0,4.584 -13.334,0.417 -17.084,-5.416c-1.666,-2.084 -5,-0.417 -7.5,4.166c-3.75,7.917 -1.666,9.584 30,21.25c18.75,7.084 37.917,12.5 42.5,11.667c16.667,-2.917 27.084,-7.917 27.084,-13.333c-0,-3.334 2.5,-4.584 7.083,-2.917c4.167,1.667 5,3.333 2.5,4.167c-2.917,1.25 -3.75,5 -2.5,8.333c2.083,5 0.833,6.25 -3.75,4.583c-4.167,-1.666 -5.833,0 -5.417,6.25c0.834,10 19.167,20.417 22.084,12.084c0.833,-2.917 3.333,-3.75 5.833,-2.5c2.5,1.666 5.833,0.416 7.5,-2.084c2.083,-3.75 4.167,-3.333 8.333,1.667c3.334,4.167 3.75,6.25 0.417,6.25c-2.5,0 -4.583,1.667 -4.583,4.167c-0,2.083 4.583,4.166 10.416,4.166c7.917,0 10.417,-2.083 10.417,-9.166c0,-8.75 0,-8.75 6.25,-0.834c4.583,6.25 6.25,6.667 6.667,1.667c0.416,-3.333 0.416,-7.917 -0,-9.583c-0.417,-2.084 1.25,-2.5 3.75,-0.834c2.083,1.25 7.5,0.417 11.25,-1.666c6.666,-3.75 5.833,-4.167 -3.75,-4.584c-15.417,0 -17.084,-5 -5.417,-17.5c7.083,-7.5 8.75,-11.666 5,-12.916c-3.75,-1.667 -3.75,-2.5 0.417,-2.5c2.5,-0.417 5,-2.5 5,-4.584c-0,-5.416 13.333,-18.75 22.083,-22.083c4.583,-1.667 7.083,-0.417 7.083,3.333c0,3.334 -2.916,6.25 -6.666,6.25c-3.334,0 -5,1.667 -3.75,4.167c1.25,2.083 -0,4.167 -2.917,4.167c-2.917,-0 -0.833,2.5 5,5.416c10,5.417 11.667,4.167 32.917,-17.5c15,-15 23.333,-20.833 24.583,-17.083c1.25,2.917 -5,12.083 -13.333,19.583c-8.334,7.5 -15,15.834 -15,18.334c-0,2.5 -2.917,3.75 -5.834,2.5c-4.583,-1.667 -5.416,-0.417 -3.75,4.166c1.667,4.584 0.834,5.834 -2.083,3.75c-2.917,-1.666 -5,-1.25 -5,1.25c0,2.084 -1.25,6.667 -2.5,10c-1.25,3.334 0.833,7.084 4.167,8.334c3.75,1.666 6.25,0.416 5.416,-2.5c-0.416,-2.5 3.75,-5.417 9.584,-6.25c8.75,-0.834 9.583,-0.417 4.166,4.166c-3.333,2.917 -6.666,10.417 -7.083,16.667l-0.833,11.25l16.666,-10.417c17.084,-10.416 29.167,-10.416 20.417,0.417c-2.917,3.333 -3.75,7.5 -2.5,10c1.25,2.083 0.417,4.583 -2.5,5.417c-8.75,2.916 0.417,15.833 13.333,18.75c7.084,1.25 14.584,5.833 17.084,10.416c3.333,6.25 7.083,7.5 13.333,5.417c5,-1.667 17.083,-2.917 27.083,-2.917c10,0 16.667,-1.666 15,-3.75c-3.333,-5.416 7.084,-14.166 18.334,-15c9.166,-0.833 12.916,8.334 5.416,12.917c-7.5,4.583 0.417,18.75 11.667,20.417c10.417,1.666 10.417,1.666 -1.667,2.5c-10.833,0.833 -11.25,1.25 -4.166,4.583c8.333,3.75 8.333,3.75 -0.417,3.75c-4.583,0.417 -10.833,-2.083 -13.75,-5c-4.583,-4.167 -5.417,-3.75 -3.75,1.25c3.333,11.667 25,9.583 39.167,-3.333c15.416,-15 25,-18.334 40.416,-14.167l11.667,2.917l-8.333,11.25c-5,6.25 -7.084,12.083 -5,13.333c5,3.333 25.833,-5.833 23.333,-10.417c-2.917,-4.166 15.417,0.417 22.083,5.834c2.5,2.083 5,2.083 5,0.416c0,-4.583 35.834,-4.583 49.584,0c6.25,2.084 16.25,1.25 26.25,-2.083c12.916,-4.167 17.083,-4.167 19.583,-0.417c2.5,3.75 6.25,4.167 17.5,0.417c21.25,-7.5 39.167,-20.833 32.5,-24.583c-4.167,-2.917 -3.75,-5.834 2.083,-14.584c4.167,-5.833 7.5,-16.25 7.5,-22.916c0.417,-6.667 2.084,-11.25 4.167,-10c5.417,3.333 27.5,-6.25 27.083,-12.084c-0.416,-12.5 2.084,-17.916 12.084,-25c10.416,-7.5 10.833,-7.5 16.25,0c3.75,4.167 5.833,5.417 6.25,2.084c-0,-5.834 16.666,-7.084 16.666,-0.834c0,2.084 -3.333,5.834 -7.916,7.917c-4.167,2.5 -9.167,9.167 -10.417,15c-1.667,5.833 -5.417,10.417 -8.75,10.417c-3.333,-0 -6.25,2.916 -6.25,6.25c0,3.75 -3.75,6.25 -9.167,6.25c-7.916,-0 -8.333,0.833 -3.333,4.166c5,3.334 5.417,5.417 0.833,12.5c-7.916,12.5 2.084,10.417 15,-3.75c6.25,-6.666 17.084,-15 24.584,-18.75c11.25,-5.416 13.333,-5.833 15.416,-0.416c1.25,3.333 1.25,9.166 0,12.5c-1.666,3.75 0,6.25 4.167,6.25c3.75,-0 6.667,1.666 6.667,4.166c-0,2.084 -2.084,4.167 -5,4.167c-2.5,0 -3.334,1.25 -2.084,2.5c1.667,1.667 10,-2.083 18.75,-8.333c8.75,-5.834 20.834,-10.834 27.084,-10.834c8.75,0 13.75,-3.75 20,-14.583c10.416,-17.5 19.166,-18.333 30.833,-3.75l8.75,11.25l19.583,-8.75c10.834,-5 19.584,-10.833 19.584,-12.917c-0,-2.5 5,-4.583 11.666,-4.583c6.25,-0.417 15.834,-2.917 21.667,-5.833c9.167,-5.417 11.25,-5 22.083,4.166c6.667,5.417 15.417,10 19.584,10c4.166,0 9.166,2.084 10.416,4.167c1.25,2.5 6.25,4.167 10.834,4.167c4.166,-0 15,3.75 23.333,8.333c24.583,12.917 55.833,11.25 78.75,-4.167c18.333,-12.916 22.5,-11.25 13.75,5c-2.5,5 -2.917,7.5 -0.417,5.834c2.084,-1.25 5,1.25 6.25,5.833c1.25,5 4.584,7.5 7.917,6.25c4.167,-1.667 5.833,0.417 5.833,7.083c-0.416,7.084 2.084,9.584 8.75,9.584c5,-0 10.417,1.666 12.084,3.333c4.166,4.167 39.166,3.75 39.166,-0.833c0,-1.667 7.5,-2.5 17.084,-1.667c13.333,1.25 20,-0.417 30.833,-8.75c16.25,-12.5 18.75,-12.917 18.75,-4.583c0,10 7.083,7.5 17.917,-6.667c5.833,-7.917 12.083,-12.083 15,-10.417c3.333,2.084 1.25,5.834 -5.417,11.25c-9.167,7.084 -10,9.584 -5.833,16.25c2.916,4.167 6.666,6.667 8.333,5.834c2.083,-1.25 2.5,-4.167 1.25,-6.25c-1.667,-2.084 -0.833,-3.75 1.667,-3.75c2.083,-0 5,2.5 5.833,5c1.667,4.166 2.917,4.166 6.25,-0c2.083,-2.917 6.667,-4.167 10.417,-2.5c4.166,1.25 7.083,0.416 7.083,-2.084c0,-2.5 2.5,-4.583 5.833,-4.583c3.334,0 7.084,-2.5 8.334,-5.417c1.25,-2.5 1.666,-1.25 0.416,3.75c-3.333,13.75 6.667,19.167 34.167,17.084c29.583,-2.084 51.25,-10 51.25,-18.334c0,-5.416 1.667,-5.416 10.833,0.834c7.5,5 12.084,5.833 13.75,2.5c4.167,-6.667 27.917,-10.417 31.667,-4.584c2.083,3.334 5,2.5 10.833,-2.5c7.5,-6.666 7.917,-6.666 7.917,1.667c0,5 -3.333,9.583 -8.333,11.25c-17.084,5.417 -7.5,10.833 17.916,10c22.5,-0.833 27.084,-2.083 30.417,-9.583c2.083,-5 5,-8.334 7.083,-7.917c1.667,0.833 6.667,-2.5 11.25,-7.083c4.584,-4.584 11.667,-8.334 16.25,-8.334c8.334,0 15,-15 8.334,-19.166c-2.084,-1.25 -3.75,-0.417 -3.75,1.666c-0,2.5 -5,5.417 -11.25,7.084c-8.75,2.083 -10,3.333 -5,6.666c4.583,3.334 4.166,3.75 -2.5,2.917c-4.584,-0.417 -10.834,0.417 -13.334,2.083c-3.75,2.5 -5.416,0.834 -5.416,-5c-0,-8.75 6.666,-14.583 16.666,-15c3.334,0 8.334,-5 11.25,-10.833c7.084,-14.583 16.25,-22.083 20,-16.25c1.25,2.083 0.417,4.167 -1.666,4.167c-10.417,-0 -3.75,6.25 7.083,6.666c6.25,0.417 8.75,-0.416 5.833,-1.25c-7.083,-2.916 -1.666,-9.583 7.917,-9.583c4.167,0 7.5,-1.25 7.5,-3.333c-1.667,-8.75 0.833,-17.5 4.583,-17.5c2.084,-0 3.75,2.083 2.917,5c-0.417,3.333 3.75,4.583 12.917,3.75c7.083,-0.417 13.333,0.833 13.333,3.333c0,2.5 -2.5,3.333 -5.417,2.083c-2.916,-0.833 -7.916,2.5 -10.833,7.917c-2.917,5 -9.167,11.25 -14.167,13.333c-6.666,2.917 -9.166,7.917 -9.166,17.917c-0.417,7.917 1.666,13.333 5,13.333c7.916,0 6.666,8.334 -1.667,11.25c-4.167,1.667 -12.083,6.25 -17.917,10.417c-5.833,4.583 -13.75,7.083 -18.75,5.833c-4.583,-1.25 -11.25,-0.416 -14.583,1.667c-4.167,2.917 2.083,4.167 20.417,4.167c23.75,-0 28.333,-1.25 38.75,-11.25c6.25,-6.25 11.666,-13.334 11.666,-16.25c0,-2.5 3.75,-5.834 8.75,-7.084c4.584,-1.25 9.584,-6.25 10.834,-10.833c2.5,-9.583 7.916,-10.833 17.5,-5c5.416,3.333 5.416,5 -0,11.25c-5.417,6.667 -4.584,7.083 8.333,4.583c17.083,-3.75 29.583,-13.75 29.583,-24.583c0,-7.917 19.167,-8.75 220,-7.5c60.417,0.417 63.334,0 63.334,-7.917c-0,-9.583 -6.667,-15.416 -9.167,-7.916c-1.25,3.75 -2.5,3.75 -4.583,0.416c-1.667,-2.916 1.25,-8.75 6.25,-13.333c10.833,-10.417 7.083,-11.25 -7.084,-2.083c-15.833,10.416 -12.5,1.25 6.25,-15.834c19.167,-18.333 32.5,-22.5 48.75,-16.25c8.75,3.334 9.167,4.167 2.084,2.917c-5.834,-1.25 -12.5,1.25 -17.5,7.083c-8.75,9.167 -12.084,20.834 -3.75,12.5c2.5,-2.5 7.083,-4.166 9.583,-3.75c2.5,0.834 3.333,0.417 1.25,-0.416c-5.833,-3.75 1.25,-8.75 9.583,-6.667c10.417,2.917 10.417,7.083 -0.416,25c-5.834,9.167 -13.334,15 -20.834,16.667c-29.583,5.833 -12.083,9.583 45.417,9.583c55,0 62.917,-0.833 69.167,-7.917c3.75,-4.166 5.833,-10.416 4.166,-14.583c-2.083,-5 -0.833,-6.25 4.584,-4.167c4.166,1.667 8.75,0.417 10.833,-2.916c2.917,-4.584 3.75,-4.584 3.75,1.25c0,4.166 -1.667,7.5 -3.333,7.5c-2.084,-0 -5.834,4.583 -8.334,10.416c-4.583,10 -4.166,10.417 9.584,10.417c7.916,0 19.166,-2.083 25,-5c9.166,-4.167 11.666,-3.75 14.583,0.833c2.917,5 5,5 9.167,0.834c10.833,-10.834 36.666,-0.417 36.666,15.416c0,2.917 2.5,4.584 5.417,3.75c2.5,-1.25 5,-4.583 5,-7.5c0,-3.333 5,-7.083 11.667,-8.75c13.75,-3.75 14.166,-0.416 0.833,13.75c-7.5,7.917 -8.75,11.667 -4.583,12.917c6.666,2.5 24.166,-17.917 21.666,-25c-1.25,-2.917 -0.416,-6.25 1.667,-7.5c2.5,-1.667 4.167,-4.583 4.167,-7.083c-0,-2.917 -2.5,-2.5 -6.25,0.833c-3.334,2.917 -6.25,3.333 -6.25,1.667c-0,-2.084 3.75,-6.25 8.333,-9.167c7.5,-4.583 10,-3.75 18.75,5c5.417,5.417 8.75,11.25 7.5,12.5c-1.667,1.25 -0.417,2.5 2.083,2.5c2.917,0 5,3.333 5,7.083c0,6.25 0.834,6.667 3.75,1.25c2.5,-3.333 2.917,-7.916 1.25,-10.416c-1.25,-2.084 0.834,-1.667 4.584,1.666c4.583,3.75 6.25,8.75 4.583,13.75c-2.083,7.5 -1.25,7.5 6.667,3.334c6.666,-3.75 7.916,-6.25 4.166,-10c-3.333,-4.584 -1.25,-6.25 8.75,-8.334c7.084,-1.25 14.584,-1.25 16.667,0c2.083,1.25 3.75,0.417 3.75,-1.666c0,-5.834 23.75,-14.584 29.167,-11.25c3.333,2.083 0.416,7.083 -8.334,15c-10.416,10 -11.666,12.083 -5.416,12.083c4.583,0 10,-2.083 12.916,-5c3.75,-3.75 5,-3.333 5,2.083c0,3.75 -2.083,7.084 -4.583,7.084c-4.583,-0 -16.25,10 -16.25,14.166c0,6.25 25.833,1.667 32.083,-5.416c3.75,-4.584 8.334,-7.5 10.417,-6.25c1.667,1.25 3.333,-1.667 3.333,-6.25c0,-5 2.084,-8.75 4.167,-8.75c6.25,-0 5,24.166 -0.833,26.25c-2.917,0.833 -0.417,1.666 6.25,1.666c6.25,0 11.25,-1.25 11.25,-3.333c-0,-2.083 2.916,-2.5 6.25,-1.25c7.5,2.917 8.333,-5 1.25,-8.333c-2.917,-1.25 -1.667,-1.667 2.916,-1.25c5,0.416 10,-2.917 12.5,-8.75c4.584,-10 5.834,-10.834 14.167,-5.417c4.167,2.917 4.583,5.417 0.833,12.5c-2.916,4.583 -6.666,8.75 -8.75,8.75c-2.5,0 -4.166,1.667 -4.166,4.167c-0,7.5 10.833,4.166 21.25,-6.667c5.416,-5.833 13.75,-12.917 18.333,-15c7.917,-4.583 7.917,-4.167 1.25,3.75c-4.167,4.583 -7.5,11.25 -7.5,15c0,6.25 5.417,7.083 39.583,7.083c28.75,0 42.5,-1.666 49.584,-6.25c5.416,-3.75 12.5,-5.833 15.416,-5.416c3.334,0.833 5.834,-2.5 5.834,-7.084c0.416,-10.416 10.416,-31.25 15.416,-31.25c1.667,0 3.334,-2.5 3.334,-5.416c-0,-3.334 5,-10 10.833,-15.834l10.833,-10l-2.916,10c-2.084,6.667 -1.667,8.75 1.666,7.084c2.5,-1.667 4.584,-6.667 4.584,-11.25c-0,-4.167 2.083,-7.917 4.166,-7.917c2.5,0 4.167,2.5 4.167,5c0,3.75 1.667,3.333 4.167,-0.833c3.75,-5.417 4.166,-5.417 4.166,-0c0,7.916 -6.666,18.75 -11.666,18.75c-4.167,-0 -33.334,30 -38.75,40.416c-5.417,10.417 -5,11.667 6.666,11.667c5.834,0 10.417,-1.667 10.417,-3.75c0,-2.083 3.75,-2.917 8.333,-1.667c4.584,1.25 8.334,3.75 8.334,5.834c-0,6.666 32.083,4.166 34.583,-2.084c1.667,-3.75 7.083,-5.833 14.167,-5.416c7.916,0.833 14.166,-2.084 19.166,-7.917c11.667,-14.583 9.167,-21.25 -7.916,-20.417c-17.084,0.417 -22.5,-4.166 -9.167,-8.75c5.417,-1.666 10,-0.833 10.833,2.084c2.917,8.75 8.334,4.583 6.25,-4.584c-1.666,-8.333 -1.25,-8.75 3.75,-3.333c2.917,3.333 8.334,6.25 11.667,6.25c3.333,0 5.833,2.5 5.417,5.417c-2.084,10 4.583,5.416 39.583,-28.75l20,-19.167l4.583,9.583c3.75,7.917 3.334,10 -1.25,10c-3.333,0 -5.833,2.5 -5.833,5.834c0,3.333 -9.167,11.25 -20.417,17.5c-12.5,7.083 -25,19.166 -32.916,30.416c-12.084,18.334 -12.084,19.167 -3.75,20.417c5,0.833 11.25,-1.667 14.166,-5.833c4.167,-5.417 5.417,-5.834 5.417,-1.25c0,3.333 3.333,-0.417 6.667,-7.5c5.416,-10.834 9.583,-13.75 18.75,-13.75c6.666,-0 12.083,-2.084 12.083,-4.167c0,-2.5 2.917,-4.167 6.25,-4.167c3.333,0 6.25,-2.916 6.25,-6.25c0,-6.666 0.417,-7.083 18.75,-8.333c7.083,-0.417 13.75,1.25 15,3.333c1.667,2.084 10,-3.75 18.333,-13.333c8.75,-9.167 17.5,-17.083 20.417,-17.083c2.917,-0 2.5,1.666 -0.833,3.75c-3.334,1.666 -5,4.583 -4.167,6.25c0.417,1.25 -3.75,8.75 -10,16.666c-12.083,15 -12.083,30 -0.417,25.417c6.667,-2.083 6.25,2.5 -0.833,20c-2.5,5.833 -1.667,6.667 4.583,4.167c10,-3.75 18.334,-11.667 18.334,-17.5c-0,-2.5 2.916,-3.334 6.25,-2.084c3.333,1.667 6.25,6.25 6.25,10.417c-0,4.167 2.083,7.917 4.166,7.917c2.5,-0 4.167,-1.667 4.167,-3.75c0,-2.084 3.75,-4.584 8.333,-5.834c4.584,-1.25 8.334,-4.166 8.334,-6.25c-0,-2.5 -3.75,-5.833 -8.334,-7.083c-10,-3.333 -11.666,-22.5 -2.083,-23.333c22.083,-2.084 30.417,-2.917 39.167,-5c5.416,-1.667 10.833,-3.75 12.083,-4.584c2.083,-2.083 17.5,15.417 17.5,20c0,1.25 -2.5,2.5 -5.417,2.5c-2.916,0 -12.916,8.334 -22.5,18.334c-12.5,13.75 -15.833,19.583 -12.916,25c2.083,3.75 7.083,6.666 10.833,6.666c8.75,-0.416 21.667,-9.583 21.667,-15.833c-0,-2.5 3.75,-6.667 8.333,-9.167c4.583,-2.5 8.333,-2.916 8.333,-1.25c0,1.667 2.084,0.834 5,-2.083c7.5,-7.5 11.667,-5.833 11.667,4.167c0,12.916 -3.75,17.5 -20,25.833c-11.667,5.833 -12.917,8.333 -8.75,13.333c6.667,8.334 66.25,7.5 66.25,-0.833c0,-2.917 -1.667,-6.25 -3.75,-7.5c-4.583,-2.917 -0.833,-19.167 4.583,-19.167c2.084,0 3.334,4.584 2.5,10.417c-0.833,5.417 0.417,10 2.5,10c7.084,-0.417 11.667,12.917 6.667,19.583c-6.25,7.084 -4.167,7.084 10,1.667c7.5,-2.5 10.833,-2.5 10.833,0.417c0,2.5 2.917,7.083 6.25,10.416c5.417,5.834 6.25,5.417 5.417,-3.333c-0.833,-5.417 -2.917,-11.25 -5.417,-12.917c-2.5,-2.083 -0.833,-2.5 3.75,-1.25c4.167,1.667 12.5,-0.416 17.917,-3.75c9.583,-6.666 10,-6.25 8.75,1.25c-0.833,4.167 1.25,10.834 4.583,14.584c4.584,5.833 4.584,7.5 -1.25,9.583c-3.75,1.25 -5.416,4.167 -4.166,6.25c1.25,2.083 5.416,2.083 10,-0.417c5.416,-2.916 8.75,-2.916 10.416,0c3.75,6.25 18.75,5 21.25,-2.083c1.667,-3.333 5.417,-6.25 8.75,-6.25c5.417,0 5.417,1.25 1.25,6.25c-4.583,5.417 -2.916,6.25 11.667,6.25c9.583,0 18.75,-2.5 21.667,-6.25c2.916,-3.333 7.916,-6.25 11.25,-6.25c2.916,0 6.666,-2.917 7.916,-6.25c1.667,-3.333 4.167,-5.417 5.834,-4.167c4.583,2.917 19.583,-12.916 22.083,-23.75c2.083,-7.916 1.667,-7.916 -8.333,-1.25c-9.584,6.667 -9.584,5.834 2.916,-10c7.5,-9.166 16.25,-17.083 19.584,-17.083c2.916,0 5.416,-2.5 5.416,-5.417c0,-3.333 3.334,-8.75 7.5,-12.5c8.334,-7.5 15.417,-9.583 11.667,-3.333c-1.667,2.083 -0.417,4.583 2.083,5.417c2.917,0.833 2.5,5.416 -0.833,13.75c-2.917,7.083 -5.417,15 -5.833,17.916c-0,2.917 -2.917,7.084 -6.25,9.167c-4.584,2.917 -4.584,4.167 -0.834,4.167c2.917,-0 4.167,1.666 2.917,4.166c-1.25,2.084 1.25,4.167 6.25,4.167c5,0 7.5,-2.083 6.25,-4.167c-1.25,-2.5 -0.417,-4.166 2.083,-4.166c2.5,-0 6.25,4.583 8.334,10.416c2.916,7.917 7.083,10.417 16.25,10.417c12.083,0 23.75,-8.75 18.333,-14.167c-1.667,-1.666 0,-1.666 4.167,0c4.166,1.25 7.083,0.417 7.083,-2.083c0,-2.5 -1.667,-4.583 -4.167,-4.583c-2.083,-0 -4.166,-2.084 -4.166,-4.167c-0,-2.5 3.75,-4.167 8.333,-4.167c10,0 10.833,-6.666 1.25,-11.666c-6.25,-3.75 -5.833,-5 2.5,-17.084c5,-7.083 12.083,-12.916 15,-12.916c3.333,-0 8.75,-5.417 12.5,-12.084c7.083,-14.583 17.917,-22.916 12.5,-10.416c-1.667,4.166 -3.333,11.666 -4.167,16.25c-0.416,4.583 -4.583,9.166 -10,10.416c-5,1.25 -9.166,3.75 -9.166,6.25c-0.417,2.084 -2.084,6.667 -4.584,9.584c-3.333,3.75 -2.5,5 3.334,5c10,-0 15.416,-3.75 22.083,-14.584c5,-7.916 5,-7.916 3.333,1.25c-1.25,5 -1.25,9.167 -0.416,9.167c1.25,0 12.5,-10.417 25.416,-22.917c22.5,-21.666 34.584,-28.333 34.584,-18.75c-0,2.084 -2.084,4.167 -4.584,4.167c-2.5,0 -3.333,2.917 -2.083,6.667c2.083,5.833 1.667,6.25 -3.75,1.666c-5.417,-4.583 -6.25,-3.333 -6.25,8.75l0.417,14.167l10,-11.25c6.25,-7.083 10.833,-10 12.916,-7.083c1.25,2.5 0.417,6.666 -2.083,9.166c-3.333,3.334 -2.5,6.25 2.5,10.834c6.25,6.25 7.917,5.833 18.333,-5c6.667,-6.25 10.834,-14.167 9.584,-17.5c-1.667,-4.167 -0,-5 6.666,-3.334c5.417,1.667 10.834,-0.416 14.167,-5c2.917,-4.166 10.833,-7.916 17.5,-8.75c7.083,-0.833 15,-5.833 19.583,-12.083c4.167,-5.833 10,-10.417 12.5,-10.417c3.334,0.417 2.5,2.084 -1.25,5.417c-19.166,16.667 -46.25,48.333 -42.5,50.417c2.5,1.25 6.667,-0 10,-2.917c2.917,-3.333 10.834,-7.083 17.084,-8.75c6.25,-1.25 10.416,-4.167 9.166,-6.25c-2.5,-4.167 8.334,-9.167 12.084,-5.833c3.333,3.333 -8.75,22.083 -20,30.833c-11.667,9.583 -7.084,12.917 10.416,7.917c7.5,-2.5 19.167,-4.167 25.417,-4.167c8.75,0 10.833,-1.667 8.75,-6.667c-1.25,-3.75 0,-8.333 3.333,-10.416c7.917,-5 12.084,-4.584 12.084,0.416c-0,2.084 -2.917,4.167 -6.25,4.167c-3.334,0 -6.25,1.667 -6.25,3.75c-0,5.833 7.5,9.583 10.416,5c1.25,-2.083 7.5,-3.75 13.75,-2.917c7.084,0.417 13.334,-2.083 16.667,-6.666c2.917,-4.167 7.083,-6.667 9.167,-5.417c2.083,1.25 4.166,-1.25 5,-5c0.833,-4.167 5,-7.5 9.583,-7.5c6.25,0 8.75,-3.333 9.583,-13.75c0.834,-7.083 3.334,-13.333 5.417,-13.333c2.5,-0 3.333,-1.667 2.083,-3.75c-2.5,-3.75 10.417,-9.167 24.584,-10c4.583,-0.417 8.333,-3.75 8.333,-7.917c0,-3.75 1.667,-8.333 3.333,-10c6.25,-6.25 2.5,-10 -9.583,-10c-15.417,0 -17.083,-11.25 -2.083,-15c5.833,-1.25 9.166,-4.583 7.916,-7.5c-1.25,-2.5 0.417,-1.25 4.167,2.917c3.333,4.583 9.167,7.083 13.75,5.833c6.667,-1.667 6.667,-2.083 0.417,-2.5c-10,-0.417 -9.584,-4.167 1.666,-13.333c10.417,-9.167 14.584,-10 16.667,-2.917c1.25,3.333 5,1.667 10.833,-4.167c5,-5 12.917,-9.166 17.084,-9.166c8.333,-0 16.25,13.333 9.166,15.833c-2.5,0.833 -4.583,5 -4.583,9.167c0,8.333 -9.167,13.333 -18.333,10c-2.917,-1.25 -8.75,2.5 -12.5,8.333l-6.667,10.833l17.5,0c16.667,-0.416 19.167,-2.083 34.167,-21.25c12.916,-16.666 17.5,-20 25,-17.916c12.916,4.166 13.333,5 3.333,18.333c-5,6.667 -9.167,14.167 -9.167,16.25c0,2.5 12.5,3.75 30.834,3.333c26.666,-0.833 32.916,-2.5 42.083,-11.25c6.667,-6.25 10,-13.333 8.75,-17.916c-2.917,-12.5 24.167,-36.25 57.083,-49.167c6.25,-2.5 11.25,-6.25 11.25,-8.333c0,-2.084 2.917,-3.75 6.25,-3.75c12.917,-0 1.667,16.25 -12.916,18.333c-3.75,0.417 -9.167,7.917 -12.084,16.667c-5,14.166 -5,15.416 1.25,12.5c4.167,-1.667 17.5,-3.75 30,-4.584c12.5,-0.833 23.75,-3.75 24.584,-6.25c0.833,-2.5 5,-7.916 9.166,-12.083c4.584,-4.583 7.917,-10 7.917,-12.917c0,-2.5 -2.917,-1.25 -6.25,3.334c-3.333,4.166 -6.25,5.833 -6.25,2.916c0,-2.5 -3.333,-5.416 -7.083,-6.666c-5.834,-1.25 -4.584,-2.5 4.166,-4.584c6.25,-2.083 11.25,-6.666 11.667,-10.416c0,-5.417 0.833,-5 3.333,1.25c2.084,5.833 4.167,6.666 6.25,2.916c2.084,-2.916 2.5,-6.25 0.834,-7.5c-2.5,-2.916 7.916,-13.75 13.333,-13.75c2.083,0 6.25,-2.916 9.167,-6.25c2.916,-3.75 6.25,-5.416 7.5,-4.166c1.25,1.25 -4.167,8.75 -11.667,16.666c-7.5,7.917 -12.5,15.834 -11.25,17.5c1.667,1.667 5.417,0.417 7.917,-2.083c2.916,-2.917 8.333,-5 12.5,-5c6.666,0 5.416,2.5 -5.834,14.167c-7.5,7.5 -16.666,15 -20,16.25c-4.583,1.666 -4.583,2.5 -0.833,2.5c3.75,0.416 2.917,3.75 -2.917,11.25c-10.833,14.166 -11.666,32.083 -1.666,30c4.166,-0.834 8.75,-6.667 10,-13.75c1.666,-7.084 2.916,-10.417 3.333,-7.5c0,2.5 6.667,-1.25 14.167,-8.334c7.5,-7.5 12.916,-15 11.666,-17.083c-0.833,-2.083 0.834,-2.917 3.334,-2.083c2.916,1.25 5,3.333 5,5c-0.417,1.666 -0.417,10.416 -0.417,19.583c0,11.667 -1.667,16.667 -6.25,16.667c-2.917,-0 -7.5,3.333 -9.583,7.083c-4.167,7.083 -11.667,9.583 -28.75,10.417c-7.5,-0 -9.584,2.5 -9.584,12.083c0,6.667 1.667,12.083 3.75,12.083c2.5,0 2.917,6.667 1.667,14.584c-3.333,19.583 10,48.75 20.417,45.416c5,-1.25 9.166,1.667 13.333,10c4.167,7.917 10.833,12.917 19.167,14.584c8.333,1.666 12.5,5.416 12.5,10c-0,6.25 0.833,6.666 4.166,1.25c2.5,-4.167 4.167,-4.584 4.167,-1.25c0,2.916 2.5,5.416 5.833,5.416c3.75,0 5,-2.916 3.75,-8.333c-1.25,-4.583 -4.583,-8.333 -7.083,-8.333c-5,-0 -6.25,-35 -1.25,-40c1.667,-1.667 2.917,-5.417 2.917,-8.75c-0,-7.917 20.416,-35 38.75,-50.834c16.25,-14.583 20.416,-12.5 7.916,4.167c-4.166,5.417 -12.5,19.167 -17.916,30.833c-5.417,11.25 -11.25,21.667 -13.334,22.084c-1.666,0.833 -5.833,7.083 -9.583,14.166c-6.25,12.084 -6.25,12.084 2.5,7.5c12.083,-6.25 19.583,-0.833 8.75,7.084c-8.333,5.416 -12.917,16.666 -5,12.083c2.083,-1.25 3.333,5.833 2.917,16.25c-0.417,18.75 5.416,27.5 6.25,9.167c0.416,-6.667 0.833,-7.5 2.5,-2.084c2.5,9.167 7.916,9.584 11.25,1.25c1.666,-5 4.166,-5.416 10.416,-2.5c4.167,2.5 9.167,2.917 10.834,1.25c2.5,-2.916 4.166,-3.333 15.833,-4.583c3.75,-0.417 3.75,-1.25 -0.417,-4.167c-2.916,-1.666 -5,-5 -4.583,-7.083c0.417,-2.083 0.417,-6.25 0,-9.167c-0.833,-8.333 -8.75,-1.25 -8.75,7.917c0,5.417 -2.917,7.917 -8.75,7.917c-6.667,-0 -7.917,-1.667 -5.833,-7.5c2.083,-3.75 5.416,-12.917 7.916,-20.417c2.5,-7.5 7.5,-14.583 10.834,-15.417c3.333,-1.25 1.25,-1.666 -5,-0.833c-7.084,0.833 -11.667,-0.833 -11.667,-3.333c0,-5.417 18.333,-6.667 23.333,-1.25c1.667,1.666 7.5,2.916 12.5,2.916c5.417,0 10.834,2.084 12.5,5c2.084,2.917 0.834,3.75 -3.75,2.084c-4.583,-1.667 -5.833,-0.834 -4.583,2.916c1.25,3.334 -2.083,8.75 -7.5,12.5c-5,3.75 -8.333,6.667 -7.5,7.084c1.25,0.416 10,0.833 20,1.666c16.667,0.834 22.5,-2.5 13.333,-8.333c-2.083,-1.25 -4.166,-4.583 -4.166,-7.083c-0,-2.5 2.5,-2.5 6.25,0.833c3.75,2.917 7.5,4.167 9.166,2.5c1.25,-1.25 5.417,1.25 8.75,6.25c7.5,10.833 4.167,13.75 -13.75,13.333c-11.666,-0.416 -15,1.667 -20.416,12.917c-8.334,17.5 -2.5,22.5 16.25,13.75c18.333,-8.75 22.916,-8.75 22.916,-0.833c0,9.583 7.5,7.5 18.334,-5c10.416,-12.084 23.333,-11.25 23.333,2.083c0,7.917 -23.333,24.167 -32.083,22.5c-10.417,-2.083 -6.25,26.667 5,37.083c5.416,5.417 10.416,12.5 10.416,15c0,2.917 2.084,5.417 4.167,5.417c2.5,0 4.167,2.917 4.167,6.25c-0,3.333 2.083,6.25 4.166,6.25c2.5,0 5.417,-2.917 6.667,-6.25c3.333,-7.917 10,-8.333 10,-0.417c0,8.334 13.75,10.417 27.917,4.584c15.833,-6.667 34.583,-6.667 34.583,-0c0,3.333 -2.5,6.25 -5,7.083c-2.917,1.25 -0.833,2.917 4.167,4.167c6.666,1.666 10.416,0.416 13.333,-5.417c7.5,-13.333 23.333,-9.583 21.25,5.417c0,1.25 7.5,-0.417 16.667,-4.167c14.583,-5.833 19.583,-5.833 36.25,-0.833c16.25,4.583 69.583,9.583 92.5,8.333c10.416,-0.417 24.583,0 27.916,0.417c12.917,2.083 23.75,-2.917 40,-18.334c18.334,-16.666 36.667,-26.25 29.584,-15c-1.667,3.334 -1.25,4.167 1.666,2.084c2.917,-1.667 5,-5.834 5,-9.167c0,-5 -2.916,-5.833 -12.5,-3.75c-7.5,1.667 -12.5,1.25 -12.5,-1.667c0,-2.5 2.917,-3.333 6.25,-2.083c3.334,1.667 6.25,0.417 6.25,-2.083c0,-5.417 17.084,-12.917 22.084,-10c1.666,0.833 1.25,5 -1.25,9.166c-2.5,5.417 -2.084,10 2.083,15.417c3.333,4.583 5.833,5.833 6.25,2.5c0,-2.5 2.917,-5 6.25,-5c3.75,0 6.25,-2.5 5.833,-5.417c-1.666,-13.333 0.834,-19.166 7.084,-16.666c3.333,1.25 11.666,-1.667 18.333,-6.667c6.667,-4.583 14.583,-8.75 17.917,-8.75c3.333,0 9.166,-3.75 13.75,-8.75c4.166,-4.583 10.833,-7.5 14.583,-6.667c9.583,2.5 25.833,-8.75 22.917,-16.25c-1.25,-3.333 -0,-4.583 4.166,-2.916c2.917,1.25 5.834,0.416 5.834,-1.667c-0,-8.333 16.666,-21.667 23.75,-19.167c5,2.084 5.833,1.25 3.333,-3.333c-3.333,-5 -2.5,-5 3.333,0c17.084,13.75 110.834,-2.5 111.25,-19.583c0,-2.5 2.917,-5 5.834,-5c12.916,-0 54.583,-40 65.833,-62.917c5.833,-12.5 15,-26.25 19.583,-30.417c5,-4.583 8.75,-10 8.75,-12.5c0,-2.916 -1.25,-2.916 -3.333,0.417c-3.75,5.833 -15.417,5 -22.5,-2.083c-7.083,-7.084 -12.083,-6.25 -9.167,1.25c1.667,4.583 0.834,5.416 -3.75,3.75c-4.166,-1.25 -7.083,0.416 -8.333,5.416c-1.667,6.667 -2.083,6.25 -2.5,-0.833c-0,-5 2.083,-11.25 5,-14.167c4.167,-4.583 3.333,-4.583 -4.167,-0.833c-12.083,6.25 -15.833,12.917 -9.583,17.083c3.333,2.084 2.917,3.75 -1.667,5.417c-4.583,2.083 -6.666,0 -6.666,-5.833c-0,-4.584 -2.084,-7.084 -4.167,-5.834c-2.5,1.667 -2.917,5 -1.667,7.5c2.084,3.334 1.667,3.75 -1.666,0.834c-10,-9.584 -7.084,-20.834 7.5,-28.334c13.75,-6.666 14.166,-7.5 5.416,-9.583c-5.416,-1.667 -9.583,-4.583 -9.583,-6.667c-0,-2.083 2.083,-2.5 4.167,-1.25c2.5,1.25 5.416,-0.416 6.666,-4.166c2.084,-5 3.75,-5.417 5.834,-1.667c2.5,3.75 6.25,3.75 16.25,0.417c10.416,-3.75 12.916,-3.334 12.916,0.833c0,6.25 11.25,12.083 16.667,8.75c2.083,-1.25 6.25,1.667 10,6.667c5,7.5 7.5,8.333 12.5,4.166c9.167,-7.916 12.917,2.5 4.167,12.5c-7.084,7.917 -6.25,7.917 47.916,7.917c53.75,0 55,0 58.334,9.583c6.25,15.834 23.333,20.417 73.75,18.75c25,-0.833 49.166,-2.916 53.75,-5c6.666,-2.5 7.083,-2.5 2.083,1.25c-5.417,4.167 -5.417,5 -0,8.75c8.75,5.834 9.167,5.834 26.667,-10.416c17.916,-16.25 25,-18.334 21.25,-6.25c-3.75,11.25 2.916,10.416 13.75,-2.084c5,-5.833 10.833,-10.416 12.916,-10.416c2.084,-0 -2.5,6.666 -10,15c-7.916,8.75 -16.666,14.166 -20.833,13.333c-5.417,-0.833 -8.75,2.5 -10.833,11.25c-2.084,6.667 -2.084,13.75 -0.417,15.417c1.667,1.666 15,4.166 30,5.416l27.083,2.5l9.167,-14.583c5.417,-7.917 14.583,-17.917 20.833,-22.083c6.667,-3.75 15,-10.834 18.75,-15.417c8.334,-9.583 9.584,-4.583 3.334,12.083c-2.917,7.917 -2.917,10 0.833,7.917c3.333,-2.083 3.75,0 2.083,7.083c-1.666,5.417 -2.916,12.5 -2.916,15c-0,2.917 -1.667,5.417 -3.75,5.417c-2.084,0 -2.917,-3.333 -1.667,-7.917c3.333,-12.916 -6.25,-14.166 -13.75,-1.666c-4.167,6.25 -12.083,16.666 -17.917,22.916c-8.75,10 -9.583,12.917 -5.416,22.084c6.666,14.166 27.916,26.666 42.5,24.583c6.666,-1.25 12.916,0 14.583,2.5c1.667,2.917 12.083,3.333 30,1.667c25.417,-2.917 27.083,-2.5 25,5c-2.083,5.833 0.833,9.583 12.083,15.416c14.584,7.084 25,6.25 20,-1.666c-4.583,-7.5 9.584,-18.334 23.75,-18.334c16.667,0 19.167,5.834 7.917,18.334c-10.833,12.916 -7.5,17.083 11.25,14.166c10,-1.666 14.167,-1.25 12.5,2.084c-4.167,6.25 0.833,16.25 7.917,16.25c3.75,-0 12.083,-5.417 19.166,-12.084c15,-13.75 25.834,-15.833 22.084,-3.333c-2.084,6.25 -0.834,8.333 5.833,8.333c6.25,0 7.917,2.5 7.5,11.25c-0.833,9.167 1.25,12.084 8.75,12.917c5.417,0.833 12.083,-0.417 14.583,-2.917c3.334,-2.5 7.5,-2.5 11.25,-0.416c9.584,6.25 46.667,4.583 60,-2.084c14.584,-7.5 15,-7.5 15,0c0,8.75 4.167,7.5 20.834,-6.25c12.916,-10.833 14.166,-12.916 9.166,-20.416c-4.166,-7.5 -4.166,-8.75 2.5,-8.75c4.167,-0 10,-2.5 12.917,-5.417c4.583,-3.75 5.833,-3.75 7.5,0c2.083,5.833 17.917,7.5 17.917,2.083c-0,-2.083 7.5,-6.666 16.666,-10.833c9.167,-4.167 16.667,-9.167 16.667,-11.25c-0,-2.083 4.167,-2.917 9.583,-1.667c12.084,3.334 24.167,-10 34.584,-37.5c4.166,-11.666 12.916,-26.25 19.583,-32.916c14.167,-14.584 19.583,-27.084 19.583,-46.667c0,-17.917 -4.583,-17.917 -17.916,0c-5.834,7.5 -18.334,21.667 -27.5,31.25c-9.584,10 -17.084,19.583 -17.084,21.667c0,2.083 -3.75,3.75 -8.333,3.75c-4.583,-0 -15.417,6.666 -23.75,14.583c-8.333,7.917 -17.083,14.583 -18.75,14.583c-5.417,0 -3.75,-7.083 2.917,-12.5c3.333,-2.916 6.25,-7.916 6.25,-10.833c-0,-3.333 2.916,-5.833 6.25,-5.833c7.916,-0 7.916,-7.084 -0,-11.667c-5.417,-2.5 -3.75,-5.417 8.333,-15c7.917,-6.667 14.583,-14.167 14.583,-17.5c0,-2.917 2.5,-4.583 5.834,-3.333c3.333,1.25 8.75,-4.167 13.75,-14.584c6.25,-12.5 7.083,-17.083 3.333,-17.083c-3.333,0 -6.25,2.083 -7.083,5c-0.834,2.5 -4.167,3.333 -7.084,1.667c-3.333,-2.084 -3.75,-5 -0.833,-8.334c2.5,-2.916 3.333,-8.75 2.083,-13.333c-2.916,-10.417 7.917,-20.417 17.5,-16.667c6.25,2.5 6.25,3.334 -0.416,10.834c-11.25,12.5 -5.417,13.75 10.416,2.083c15,-10.833 25,-13.333 25,-5.833c0,2.083 -1.666,3.333 -3.75,1.666c-2.083,-1.25 -5,-0.833 -5.833,1.25c-1.25,1.667 2.5,5.417 8.333,7.917c8.75,4.167 10,4.167 7.917,-1.25c-2.917,-7.5 3.333,-7.5 24.583,0.417c9.167,3.333 27.084,5.833 39.584,6.25c12.5,-0 30.416,2.916 39.583,6.25c9.167,3.333 27.083,5.833 39.583,6.25c12.5,-0 30.417,2.916 39.584,6.25c9.166,3.333 28.75,5.833 43.75,6.25c34.583,-0 66.25,8.75 84.583,22.5c13.333,10 54.583,27.5 65.417,27.5c2.083,-0 4.166,-2.5 4.166,-5.417c0,-3.333 -45.833,-24.167 -109.166,-50.833c-1047.08,-433.75 -1773.33,-782.084 -1983.75,-951.667c-20,-16.25 -43.75,-33.333 -52.084,-37.5c-8.333,-4.167 -26.666,-20.417 -40.416,-35.833c-43.75,-48.75 -52.917,-57.084 -113.334,-102.5c-210.416,-159.167 -351.666,-282.5 -545,-476.25c-162.083,-162.5 -306.666,-326.667 -422.916,-481.667c-14.584,-19.583 -43.334,-51.25 -64.167,-70.833c-102.917,-97.5 -211.25,-237.084 -305,-392.084c-176.25,-292.5 -323.333,-666.666 -438.75,-1116.25c-62.917,-245.833 -87.917,-475.416 -82.5,-756.25c9.583,-459.583 104.583,-882.083 289.583,-1287.5c259.584,-568.75 841.667,-1096.67 1661.25,-1507.5c57.5,-28.75 114.584,-57.083 127.084,-62.5c327.083,-147.916 388.75,-172.916 541.666,-222.916c337.5,-110 705,-175.834 1147.92,-205.834c105.417,-7.083 520.417,-7.083 581.25,0c24.167,2.917 58.75,5.834 77.083,6.667c18.334,0.833 72.917,4.583 120.834,7.917c48.333,3.75 154.166,10.416 235.416,15.416c81.25,4.584 207.5,12.5 280.417,17.5l132.083,9.167l0,6631.67l-104.166,-0l-0,358.333l1940.42,0c87.917,0 159.584,1.25 159.584,2.5c-0,5.417 -70,91.667 -102.917,126.667c-27.5,29.166 -34.583,39.166 -34.583,49.166c-0,11.25 -1.667,12.5 -16.667,15c-13.333,2.084 -24.167,10 -61.25,45c-79.583,74.584 -171.25,142.917 -237.917,177.5c-17.916,9.167 -50.416,22.917 -72.5,30c-59.166,19.584 -55,25 12.917,16.667c19.167,-2.5 35.833,-3.75 37.083,-2.5c1.25,1.25 -0.416,2.917 -3.75,4.167c-35,10 -44.583,13.75 -51.25,20c-4.583,4.166 -10.833,7.5 -13.75,7.5c-2.916,-0 -5.416,1.666 -5.416,3.75c-0,4.583 -22.917,12.916 -35.834,12.916c-5.416,0 -10,1.667 -10,3.334c0,2.083 -4.583,6.25 -10.416,9.166l-10.417,5.417l-0,169.167l15.833,-0.834c8.75,-0.416 15,-2.916 14.584,-5.833c-0.417,-2.5 3.333,-5.417 8.75,-6.25c8.333,-1.667 10.416,0 12.5,10c2.083,10 4.166,11.667 15.416,11.667c7.5,-0 12.5,1.25 11.25,2.5c-1.25,1.25 -10,2.083 -19.583,2.5c-19.167,-0 -22.917,5.833 -6.25,10c14.583,3.75 38.75,-0.834 47.917,-9.167c5.416,-5 15.416,-7.5 30.833,-7.5c21.667,-0.417 27.917,2.083 18.75,7.917c-12.917,7.916 3.333,16.25 20,10c6.25,-2.5 29.167,-4.167 50.833,-3.75c141.667,3.75 145,3.333 172.917,-8.334c4.583,-1.666 11.667,-4.583 15.833,-5.833c7.5,-2.5 10,-10.833 2.5,-10.833c-2.5,-0 -1.25,-3.334 2.917,-7.084c5.417,-5.416 7.917,-5.833 9.167,-2.083c0.833,2.5 4.583,5 8.333,5c6.25,-0.417 6.25,-0.833 -0.417,-5.833c-13.75,-10.417 -0.416,-25 33.75,-35.834c13.75,-4.166 17.5,-7.5 17.5,-14.583c0,-5.417 2.5,-11.667 5.834,-14.167c5,-4.166 7.083,-3.333 10.416,3.334c5.417,9.583 2.084,21.25 -6.25,21.25c-3.333,-0 -5.833,1.666 -5.833,4.166c-0,2.084 -4.583,4.167 -10.417,4.167c-10.833,0 -20,12.917 -11.25,15.833c2.917,0.834 1.25,6.25 -4.166,15.834c-7.917,13.333 -7.917,14.166 -0.834,11.25c4.584,-1.667 10.417,-5.417 13.334,-8.334c2.916,-2.916 10,-5.416 15.833,-5.416c5.833,-0 10,-2.5 10,-5.834c-0,-3.75 7.917,-8.333 20,-11.666c17.917,-5.417 20,-5 22.5,1.25c3.333,9.166 25.417,14.166 35.833,8.333c4.584,-2.5 19.167,-5.833 32.084,-7.083c17.916,-2.084 26.25,-5.417 32.5,-12.917c10,-11.25 17.5,-12.083 35.833,-2.917c10.833,5.417 16.667,5.834 34.583,1.667c12.084,-2.5 24.584,-7.083 28.334,-10c6.666,-5.833 38.75,-12.083 60.416,-12.083c7.084,-0 25.834,5 41.667,11.25c16.25,5.833 34.167,10.833 40,10.833c5.833,0 17.083,3.333 25,7.083c7.917,3.75 25.833,7.917 40.417,8.75c26.25,1.667 63.333,-5.416 63.333,-12.083c-0,-2.083 2.5,-3.75 5.833,-3.75c3.334,0 5.417,3.333 5,7.5c0,3.75 2.084,6.667 5,6.25c2.5,-0.833 5,0.833 5,2.917c0,2.5 2.917,4.166 6.25,4.166c3.334,0 6.25,2.917 6.25,6.25c0,7.5 15.417,15.834 23.75,12.917c3.75,-1.667 8.75,-0.833 11.667,1.667c7.083,5.833 97.5,2.916 109.167,-3.334c11.666,-6.666 13.75,-6.25 13.75,1.25c-0,5 5.416,6.25 22.916,6.25c14.167,0 22.917,-1.666 22.917,-4.583c-0,-3.333 2.083,-3.333 6.25,0.417c5,4.166 6.667,3.75 8.75,-1.25c2.083,-5.417 3.75,-5.834 10.833,-1.667c6.25,3.75 9.167,3.75 10.417,0.417c1.667,-5.417 20.833,-2.917 24.583,3.333c1.25,2.083 4.584,1.667 7.917,-0.833c4.167,-3.334 7.917,-3.334 14.167,-0.417c10,5.417 74.166,6.25 77.083,0.833c2.917,-4.583 23.75,-8.75 52.5,-10.416c12.5,-0.417 27.5,-2.084 33.333,-3.334c5.834,-1.25 8.334,-1.25 5.417,-0.416c-7.5,2.916 -10,13.75 -3.333,16.25c7.5,2.916 14.583,-1.25 14.583,-9.167c-0,-3.333 1.667,-5.833 3.75,-5.833c2.083,-0 2.917,3.75 1.667,8.333c-2.084,7.917 -0,8.333 37.5,8.333c36.666,0 39.583,-0.416 41.666,-8.75c1.667,-6.25 4.584,-8.333 9.167,-6.666c3.75,1.666 9.167,-0.834 13.333,-5.417c5,-5.417 12.5,-8.333 22.5,-8.333c13.75,-0 15.417,-1.25 20,-16.667c3.75,-12.083 7.084,-16.667 12.917,-16.667c7.083,0 8.333,2.917 8.333,16.25c0,18.334 -7.916,29.167 -22.083,30.417c-5,0.417 -13.75,0.833 -19.583,1.25c-22.5,1.667 -25,2.5 -25,8.333c-0,5 6.666,6.25 36.25,6.25c32.5,0 37.916,-1.25 52.083,-10.833c8.75,-6.25 15.833,-12.917 15.833,-14.583c0,-2.084 3.334,-3.75 7.084,-3.75c3.75,-0 11.666,-4.584 17.916,-10.417c7.5,-7.083 12.084,-9.167 16.667,-6.25c5,3.333 4.167,4.167 -2.917,4.167c-12.916,-0 -12.083,6.666 1.25,10c17.917,4.583 40,-2.084 54.584,-16.667l13.75,-14.167l300,0c190.416,-0.416 304.166,-1.666 311.25,-4.583c7.916,-2.917 11.666,-2.5 14.166,0.833c2.5,4.167 6.667,4.167 20,-0.416c14.584,-4.584 18.75,-4.584 28.334,0.416c5.833,3.334 11.666,8.75 12.5,12.5c0.833,3.334 10,8.334 19.583,11.25c22.917,5.834 37.083,0 47.083,-20c4.167,-7.916 7.917,-15.416 8.334,-16.25c0.416,-0.833 3.75,1.667 7.5,5.417c3.75,3.75 5,6.667 2.5,6.667c-2.5,-0 -4.584,3.333 -4.584,7.5c0,4.166 -5,9.166 -12.5,12.083c-13.333,5 -17.083,17.917 -5,17.917c10.834,-0 27.917,-10.417 27.084,-15.834c-1.667,-6.25 17.083,-6.666 27.083,-0.416c10,6.25 31.667,-2.084 28.333,-10.834c-1.25,-4.166 0.417,-6.25 5.834,-6.666c20,-1.25 32.083,-2.917 41.666,-5.834l10.417,-2.916l-10.417,8.75c-5.833,4.583 -13.75,8.75 -17.5,8.75c-4.583,-0 -7.5,3.333 -7.5,8.333c0,9.583 11.667,11.25 15,2.083c1.667,-3.333 6.25,-6.25 10.834,-6.25c7.083,0 7.5,1.25 3.333,6.25c-2.5,3.334 -3.333,7.917 -2.083,10.834c4.583,6.666 40,2.083 45.833,-6.25c2.917,-3.75 7.917,-6.667 11.667,-6.667c3.333,0 7.5,-2.5 8.333,-5.417c1.25,-2.916 2.5,-2.083 2.5,2.084c0.417,4.166 -1.25,7.5 -3.75,7.5c-2.083,-0 -4.167,2.5 -4.167,5.833c0,5.833 21.667,7.083 27.084,1.667c1.666,-1.667 5.416,-1.667 8.75,-0.417c3.333,1.25 11.666,-3.75 19.166,-10.833c7.084,-6.667 14.584,-11.667 17.084,-10c2.083,1.25 -0.417,5.833 -5.834,10c-8.333,6.25 -9.166,8.333 -4.583,12.916c4.583,4.584 8.333,3.75 21.667,-3.333c15.833,-8.75 16.25,-8.75 18.75,-1.25c2.5,7.083 7.083,7.917 54.583,7.917c37.917,-0 56.25,-1.667 67.5,-6.667c20,-8.333 82.917,-10.833 85.833,-2.917c2.917,7.5 41.667,7.084 47.917,-0.416c2.5,-2.917 12.083,-5.834 20.833,-5.834c22.084,-0.416 33.75,-8.333 33.75,-22.5c0,-7.5 2.084,-11.666 6.25,-11.666c3.334,-0 6.25,2.916 6.25,6.25c0,3.333 1.667,6.25 3.75,6.25c2.084,-0 1.667,5.833 -0.833,12.5c-2.5,7.083 -6.25,12.5 -7.917,12.5c-1.666,-0 -3.333,2.916 -3.333,6.25c-0,8.333 22.5,8.333 30.833,-0.417c3.75,-3.333 6.667,-4.583 6.667,-2.083c-0,2.5 2.5,3.333 5.833,2.083c3.334,-1.25 7.084,-0.417 8.75,2.083c3.75,6.25 40.834,5.834 47.084,-0.416c4.166,-4.167 6.25,-4.167 9.166,0.833c3.334,5 5.834,5 19.584,-2.083c8.75,-4.167 19.166,-7.084 23.333,-6.667c3.75,0.417 7.083,-1.667 7.083,-5c0,-7.083 7.917,-10.833 15.417,-8.333c3.333,1.25 4.583,5.833 2.917,11.666c-2.5,10 -2.5,10 30.416,8.75c17.917,-0.833 37.5,-3.333 44.167,-6.25c6.25,-2.5 15.833,-6.25 21.667,-8.75c14.583,-5.416 14.166,-18.333 -0.417,-15c-13.333,3.334 -26.667,-0.416 -26.667,-7.5c0,-6.25 64.167,-13.333 76.25,-8.333c9.584,3.333 9.167,10 -0.833,10c-4.167,0 -12.083,4.583 -17.917,10c-5.833,5 -13.75,10.833 -17.5,12.083c-10.416,4.167 -12.5,15 -4.583,23.75c9.167,10 25.833,10.834 35.833,1.667c4.167,-3.75 12.5,-6.667 18.75,-6.667c7.5,-0.416 11.667,-2.916 12.917,-7.916c1.25,-4.584 5.833,-7.917 10.417,-7.917c12.5,0 6.666,9.167 -11.667,18.75c-20.833,10.417 -23.75,15 -15,21.667c8.75,6.25 86.667,7.5 90.417,1.25c3.333,-5.417 18.75,-5.417 18.75,-0c-0,2.083 -1.667,4.166 -4.167,4.166c-2.083,0 -4.167,1.667 -4.167,4.167c0,2.083 5.834,4.167 12.5,4.167c7.084,-0 17.917,2.5 24.167,5.833c11.667,5.833 24.167,2.083 25,-7.917c0.833,-7.083 12.917,-7.083 19.583,-0.416c8.75,8.333 7.917,12.083 -2.083,8.75c-6.25,-2.084 -7.5,-1.25 -5.833,3.75c1.25,3.75 3.75,6.666 5.416,7.083c28.334,2.917 57.5,2.5 61.667,-1.25c3.75,-2.917 5.417,-2.917 5.417,0.417c-0,5.833 44.166,6.25 47.916,0.416c1.25,-2.5 5.834,-4.166 10.417,-4.166c4.167,-0 18.75,-5.834 32.917,-12.5c22.083,-10.834 25.416,-14.167 25.416,-24.167c0,-14.167 6.667,-21.667 19.167,-21.667c5.417,0 10,-3.333 11.25,-8.333c1.25,-4.583 4.583,-8.333 7.083,-8.333c3.334,-0 3.75,2.916 2.084,7.083c-8.334,20.833 -7.917,22.083 5.833,17.5c7.083,-2.5 12.917,-7.083 12.917,-10c-0,-2.917 2.916,-6.25 6.25,-7.917c3.333,-1.25 6.25,-5 6.25,-8.75c-0,-3.333 2.5,-6.25 5.416,-6.25c2.5,0 11.667,-5.833 19.584,-12.5c7.916,-6.666 17.083,-12.5 20,-12.5c2.5,0 5,-2.916 5,-6.25c-0,-3.75 2.916,-7.5 6.25,-8.75c3.333,-1.666 6.25,-5.416 6.25,-8.75c-0,-3.333 5.833,-8.333 12.5,-10.833c7.083,-2.5 13.75,-8.333 15,-12.5c1.25,-4.167 8.333,-13.75 15.416,-21.667c7.5,-7.5 16.25,-17.916 19.584,-22.916c3.333,-5 8.333,-11.667 10.833,-14.167c2.5,-2.917 6.25,-9.167 7.917,-14.583c5,-16.25 30.833,-45 49.166,-54.167c6.25,-3.333 11.25,-8.333 11.25,-11.667c0,-2.916 2.084,-5.416 4.167,-5.416c2.5,-0 4.167,-2.917 4.167,-6.25c-0,-3.75 2.916,-7.5 6.25,-8.75c3.333,-1.667 6.25,-5 6.25,-8.334c-0,-2.916 2.5,-7.083 5.833,-8.75c3.75,-2.083 6.25,-14.583 7.5,-37.083c2.083,-37.083 19.583,-82.917 33.333,-86.25c4.167,-1.25 7.5,-5 7.5,-7.917c0,-3.333 5,-8.75 11.667,-12.083c6.25,-2.917 17.083,-10 24.167,-15c7.083,-5.417 15,-9.583 17.5,-9.583c2.916,-0 5,-1.667 5,-3.75c-0,-2.084 5,-4.584 11.666,-5.417c10.417,-1.25 11.25,-2.917 12.5,-22.083c1.667,-26.25 12.917,-37.917 66.667,-70.417c132.5,-80 279.583,-128.75 467.5,-155c65.417,-9.167 265,-10.417 337.5,-2.5c283.333,32.083 512.917,100.417 852.083,252.917c162.084,72.916 257.5,109.166 377.084,143.333c194.583,55.833 362.5,78.75 545.416,74.167c123.75,-2.917 157.917,-7.917 252.5,-35c491.667,-141.25 963.75,-374.584 1312.5,-648.75c45,-35.417 149.167,-125.417 166.667,-144.167c7.083,-7.083 31.25,-26.25 54.167,-42.083c22.916,-16.25 52.083,-36.25 64.583,-45.417c50,-35.417 129.167,-67.5 202.917,-82.083c48.75,-9.167 158.333,-9.167 215.833,0.416c43.75,7.084 102.5,22.5 179.167,45.834l45.833,14.166l25.833,40.834c54.584,86.25 101.667,189.583 118.75,259.583c10,41.667 11.667,98.75 3.334,123.333c-17.084,51.25 -62.917,82.5 -137.5,94.167c-35.417,5.417 -48.75,0 -76.667,-29.583c-22.917,-24.167 -37.083,-52.084 -48.75,-93.75c-8.75,-31.667 -8.75,-48.75 -1.25,-97.084c2.083,-14.166 0.833,-19.583 -5,-26.666c-19.583,-21.25 -48.75,-17.5 -64.583,7.916c-8.334,13.334 -9.584,20.834 -9.584,61.25c0,108.75 52.917,206.25 132.5,244.167l28.334,13.333l42.083,-5c121.25,-14.166 193.75,-68.333 215.417,-162.083c7.916,-34.167 2.916,-118.333 -10,-162.917c-20,-69.166 -40,-117.916 -77.084,-186.666c-42.916,-80 -86.25,-144.584 -112.083,-167.5c-95.833,-85.417 -219.167,-133.334 -345,-133.334c-36.25,0 -107.083,8.334 -141.25,16.667c-24.583,5.833 -24.583,5.833 -9.167,-13.333c30.834,-37.917 80.834,-127.084 113.75,-203.75c7.5,-17.917 27.917,-69.167 45.417,-114.584c17.917,-45.833 37.917,-94.166 45,-107.916c16.25,-32.084 20.417,-83.334 9.583,-112.5c-6.666,-16.667 -6.666,-22.917 -2.083,-59.167c2.917,-22.5 5.417,-79.167 5.417,-126.25c-0,-72.083 -1.667,-92.083 -9.584,-128.333c-11.666,-55 -17.916,-74.584 -38.75,-116.25c-39.583,-79.584 -101.666,-127.917 -186.25,-145c-32.083,-6.667 -36.25,-6.667 -62.083,-0c-134.167,33.333 -189.167,141.666 -146.25,287.5c9.583,32.083 28.75,72.916 38.333,80.833c12.084,10 33.334,10 45.417,0.417c16.667,-12.917 18.75,-31.667 6.25,-56.667c-18.333,-36.25 -29.583,-80 -30,-116.25c-0,-61.25 28.333,-99.167 90,-118.75c23.75,-7.917 29.583,-8.333 47.917,-3.75c70,17.083 121.666,68.75 148.75,149.583c22.5,66.667 30,183.75 17.916,276.25c-3.75,29.167 -5.833,55 -4.583,57.084c1.25,2.083 -3.333,7.5 -10.417,12.5c-7.916,5.833 -20.833,25 -35.416,53.75c-43.75,85.833 -192.084,259.583 -366.667,429.583c-227.083,221.25 -474.167,399.583 -743.333,535.833c-324.584,164.584 -645.417,251.667 -1004.58,272.917c-100.833,5.833 -175.833,1.25 -240.416,-15c-22.5,-5.417 -58.75,-12.917 -80.417,-16.667c-219.583,-36.666 -467.917,-128.75 -639.583,-236.666c-67.5,-42.5 -108.334,-75.834 -190,-155.417c-74.167,-72.083 -112.5,-104.583 -201.667,-170.417c-157.917,-117.083 -442.083,-285 -689.583,-408.333c-44.584,-22.5 -82.5,-42.917 -84.167,-45.417c-1.667,-2.5 -3.333,-8.75 -3.333,-13.75c-0,-7.5 10.833,-16.666 53.333,-44.166c192.083,-125.417 367.5,-306.25 514.583,-530c237.917,-362.917 407.5,-879.167 465,-1416.67c16.667,-155 18.334,-229.167 6.667,-291.667c-7.5,-37.083 -29.167,-114.166 -44.167,-154.166c-9.166,-25.417 -19.583,-54.584 -22.5,-65.417c-2.916,-11.25 -13.333,-33.75 -22.5,-50.833c-9.166,-17.084 -20.833,-40.834 -25.416,-52.917c-5,-12.083 -12.5,-30 -17.084,-39.583c-4.166,-10 -7.916,-18.75 -7.916,-20c-0,-5.417 -17.084,-47.917 -22.084,-52.5c-0.833,-1.25 -15,-26.667 -30.833,-56.25c-105,-197.084 -230.833,-341.667 -351.667,-404.167c-53.75,-27.917 -91.666,-37.083 -149.583,-37.5c-55.833,0 -80.833,5.417 -128.333,27.5c-45.417,20.833 -82.084,47.083 -126.667,90.417c-47.083,45.833 -55,57.916 -66.25,102.916c-18.333,73.334 -11.25,150 18.75,197.084c25,39.583 73.333,71.666 122.917,82.5c123.333,25.833 249.583,-34.167 267.083,-127.5c6.667,-35.834 -6.667,-91.667 -26.25,-107.917c-3.75,-2.5 -12.917,-5.833 -20.417,-7.5c-11.25,-1.667 -17.083,0 -26.25,8.333c-14.583,12.084 -15.833,32.084 -4.583,61.25c10,25.834 5.833,42.5 -15.417,64.167c-24.583,24.167 -57.5,36.667 -105.416,39.167c-120,5.833 -171.667,-72.5 -135,-204.167c3.333,-10.833 15,-25.833 37.916,-49.167c105,-104.583 202.5,-129.583 310.834,-79.166c117.083,54.166 245.416,206.666 351.25,416.666c16.25,32.084 28.333,60.417 27.083,62.5c-1.25,2.084 2.083,10.417 7.5,17.5c22.5,31.25 36.667,85 46.667,182.084c5.833,57.916 5.833,67.916 -0,114.166c-23.75,184.584 -119.167,423.334 -281.25,702.917c-76.667,132.083 -195.834,314.583 -215.834,330.833c-15.833,12.917 -42.5,40 -106.666,108.334c-170,180.833 -422.917,381.666 -683.75,543.333c-335,207.917 -692.917,361.25 -1039.17,446.667c-72.5,17.5 -196.25,43.333 -198.333,40.833c-0.417,-0.833 8.75,-31.25 20.833,-67.917c80.417,-243.333 161.25,-643.333 248.75,-1237.5l21.667,-145.833l-0,-193.75c0.416,-189.583 -2.084,-246.25 -16.25,-393.75c-67.917,-694.167 -322.917,-1392.92 -737.917,-2022.08c-88.333,-133.75 -146.25,-213.75 -161.667,-223.75c-7.5,-5 -17.916,-18.75 -25.416,-33.75c-13.334,-27.084 -39.167,-63.75 -89.167,-126.667c-190,-240.417 -452.5,-482.5 -713.333,-657.5c-228.75,-152.917 -393.75,-240.417 -612.5,-323.333c-99.584,-37.5 -241.667,-77.5 -299.584,-84.167c-19.166,-2.083 -25.416,-4.583 -27.083,-10.417c-1.667,-4.583 -5,-7.916 -7.917,-7.916c-11.666,-0 -15,10.833 -15,46.666l0,36.25l15.834,4.167c8.333,2.083 30,7.083 47.916,10.833l32.084,7.5l-0,2993.75c-0,0 -0.417,3030 -0,3132.92l-0,130.417l-2129.17,-0l-0,-6622.92l58.333,4.167c69.167,5 83.334,1.25 104.167,-27.5c43.75,-60.417 10.833,-111.25 -89.583,-138.334c-36.25,-10 -200.417,-45.833 -287.5,-62.916c-229.167,-45 -445,-74.167 -639.167,-85.834c-206.25,-12.916 -996.25,-23.75 -1210.83,-16.666Zm4358.33,756.25c175,82.083 360.417,239.583 502.5,427.083c66.667,88.333 144.583,214.167 137.5,222.5c-2.917,3.75 8.75,24.583 41.667,75c294.583,447.5 489.583,980.833 566.25,1549.58c27.083,202.917 37.916,363.75 37.916,580c0,201.25 -8.333,352.917 -30,533.334c-16.25,137.5 -50,330.416 -58.75,335.833c-2.083,1.25 -8.333,24.583 -13.75,51.25c-61.666,302.917 -191.666,737.5 -262.916,878.333c-19.167,38.75 -26.667,49.584 -59.584,90.834c-32.083,39.583 -75.833,111.666 -124.583,203.333c-45,84.583 -88.333,177.083 -88.333,187.917c-0,19.583 -125.417,244.583 -209.584,375.416c-105.833,164.584 -177.916,254.584 -307.083,383.334c-54.167,53.75 -119.583,122.916 -145,153.333l-46.667,55.417l0,-3226.67c0,-2762.5 0.417,-2902.5 7.5,-2900c3.75,1.25 27.917,12.083 52.917,24.167Zm-9815,2335.42c85.417,17.5 155.833,45 258.75,101.667c292.083,160.833 497.5,415 572.917,709.167c20,77.916 27.083,127.083 27.083,190.833c-0,60.417 -5.833,97.083 -22.5,140.833c-42.5,113.75 -155,177.917 -282.917,162.5c-114.166,-14.166 -211.25,-77.916 -256.666,-169.166c-28.75,-57.084 -31.667,-74.584 -31.25,-183.75c0.416,-52.917 2.5,-103.75 5,-113.75c12.5,-51.25 -28.334,32.5 -43.334,88.75c-10.416,40 -10.416,130.416 0,168.75c11.25,40.833 35.834,90 63.75,127.083c48.75,64.583 86.667,92.5 155.417,115.417c36.667,12.5 43.75,13.333 97.917,13.333c68.333,0.417 93.333,-5 150,-32.5c44.583,-21.667 85,-50 125,-86.667c25.416,-23.75 30.833,-31.25 40.416,-57.916c27.917,-75.417 39.167,-153.75 35.417,-243.334c-6.667,-154.583 -53.75,-297.083 -152.5,-460.416c-23.75,-39.584 -22.917,-43.334 10,-36.667c11.667,2.5 52.917,4.583 91.667,4.583c60,0 75.833,-1.25 104.166,-8.75c51.667,-14.166 90.834,-35.416 121.25,-65.833c14.584,-14.583 26.667,-25 26.667,-23.333c0.417,1.666 2.917,-1.667 6.667,-7.5c5.833,-10 5.833,-9.167 3.75,14.583c-22.917,252.5 -35.417,527.5 -35.417,791.25c-0,533.333 44.167,915.417 143.333,1242.08c25.834,85.417 39.584,138.334 52.5,204.167c25.417,126.667 132.084,380.417 220.834,524.583c27.083,44.167 71.666,110 95,140c11.666,14.584 20.833,27.5 20,27.917c-0.417,0.833 -30.834,8.75 -67.5,18.333c-120,30.417 -290,60.834 -428.75,76.25c-208.75,23.334 -434.167,25 -618.75,4.167c-566.25,-63.333 -980,-313.333 -1225,-740.833c-68.334,-118.75 -165.417,-350.834 -231.25,-552.5c-13.334,-40 -31.25,-87.084 -39.584,-104.167c-41.666,-82.917 -92.5,-218.75 -116.666,-310.417c-76.25,-287.916 -69.167,-574.583 20.416,-825.833c38.334,-106.667 74.167,-175.833 108.75,-207.917c22.917,-21.666 40,-52.5 44.167,-80.833c5,-31.667 36.667,-68.75 116.667,-135.417c25,-20.833 49.166,-36.25 74.166,-47.083c21.25,-9.583 60.417,-44.583 73.75,-65.833l8.334,-13.75l-8.75,-17.5l-9.167,-17.5l22.5,-22.5c56.25,-57.5 147.5,-122.5 233.333,-166.25c82.5,-41.667 152.5,-62.917 259.584,-78.334c31.25,-4.583 139.166,1.25 180.833,10Zm5174.17,4817.5c9.166,8.334 11.25,8.75 35.416,4.167c14.584,-2.917 30.417,-6.25 35.834,-7.5c12.083,-3.333 11.666,2.5 -1.25,17.5c-11.667,13.75 -10.417,19.167 2.083,7.917c4.583,-4.167 8.75,-6.667 9.583,-5.834c12.084,20.417 11.667,24.167 -4.166,32.084c-11.25,6.25 -22.084,2.5 -19.167,-6.667c1.667,-5.833 1.25,-5.833 -2.083,-1.25c-6.25,8.333 -35,6.667 -41.667,-2.5c-3.75,-5.417 -11.25,-7.5 -26.25,-7.5c-15.417,0 -22.5,-2.083 -26.667,-7.5c-7.916,-10.833 -3.333,-23.75 8.75,-23.75c5,0 10.834,-2.083 12.084,-4.167c3.75,-6.25 6.666,-5.416 17.5,5Zm-2911.25,72.5c3.333,8.334 5.833,10 13.333,7.917c6.667,-2.5 8.333,-1.667 6.667,2.917c-1.25,3.333 0.833,10.416 5,16.25l7.916,10l11.667,-11.667c6.667,-6.25 14.583,-11.25 17.5,-11.25c2.917,0 3.75,-2.083 2.083,-5.417c-2.5,-3.75 -2.083,-3.75 3.334,0c3.333,2.917 7.5,4.167 9.166,2.5c1.667,-1.666 1.667,0 0,4.167c-1.25,3.75 -4.166,6.25 -6.25,5c-1.666,-1.25 -9.166,4.167 -16.25,12.083c-12.5,13.75 -39.583,25.417 -28.75,12.5c3.75,-4.583 2.917,-5.833 -2.916,-5.833c-4.167,0 -11.667,5 -16.667,11.25c-5,6.667 -10.833,10 -12.5,8.333c-2.083,-1.666 -1.667,-4.583 0.833,-6.25c2.084,-1.666 8.334,-8.75 13.334,-16.25c6.666,-9.583 7.916,-14.166 4.166,-16.25c-2.5,-1.666 -5.833,-0.833 -6.666,1.667c-0.834,2.917 -3.334,5 -5.417,5c-2.5,0 -2.917,-2.083 -1.667,-4.167c1.25,-2.5 1.25,-6.25 0,-8.333c-1.666,-2.917 -10.416,2.5 -21.25,12.5c-19.166,17.5 -23.333,20 -21.25,12.083c0.417,-2.5 -1.666,-5.833 -5,-6.666c-4.166,-1.667 -4.583,-0 -2.5,7.083c2.084,6.25 1.667,8.333 -1.666,6.667c-2.5,-1.667 -4.584,-0.834 -4.584,1.25c0,2.5 -1.666,4.583 -3.75,4.583c-5.833,0 3.334,-25 9.167,-25.417c2.917,-0.416 7.083,-0.833 9.167,-1.666c2.5,-0.417 6.25,-1.25 8.333,-1.667c2.5,-0.417 1.25,-2.5 -2.083,-5c-4.584,-3.333 -5,-5 -0.834,-6.667c2.5,-0.833 4.167,-3.75 2.917,-5.416c-1.25,-2.084 4.167,-5 12.5,-6.667c7.917,-1.25 14.583,-4.167 14.583,-6.25c0,-7.083 4.584,-3.75 8.334,7.083Z" style="fill-rule:nonzero;"/></g></svg>